<?xml version="1.0" encoding="UTF-8"?>
<svg width="100" height="100" viewBox="0 0 100 100" xmlns="http://www.w3.org/2000/svg">
  <defs>
    <pattern id="islamic-pattern" x="0" y="0" width="100" height="100" patternUnits="userSpaceOnUse">
      <!-- Islamic geometric pattern - 8-pointed star -->
      <g fill="none" stroke="#22c55e" stroke-width="0.5" opacity="0.15">
        <!-- Horizontal and vertical lines -->
        <line x1="0" y1="25" x2="100" y2="25" />
        <line x1="0" y1="50" x2="100" y2="50" />
        <line x1="0" y1="75" x2="100" y2="75" />
        <line x1="25" y1="0" x2="25" y2="100" />
        <line x1="50" y1="0" x2="50" y2="100" />
        <line x1="75" y1="0" x2="75" y2="100" />
        
        <!-- Diagonal lines -->
        <line x1="0" y1="0" x2="100" y2="100" />
        <line x1="100" y1="0" x2="0" y2="100" />
        <line x1="0" y1="50" x2="50" y2="0" />
        <line x1="50" y1="0" x2="100" y2="50" />
        <line x1="100" y1="50" x2="50" y2="100" />
        <line x1="50" y1="100" x2="0" y2="50" />
        
        <!-- Octagonal shapes -->
        <polygon points="25,15 35,25 25,35 15,25" />
        <polygon points="75,15 85,25 75,35 65,25" />
        <polygon points="25,65 35,75 25,85 15,75" />
        <polygon points="75,65 85,75 75,85 65,75" />
        
        <!-- Central star -->
        <polygon points="50,15 55,25 65,30 55,35 50,45 45,35 35,30 45,25" />
        <polygon points="50,55 55,65 65,70 55,75 50,85 45,75 35,70 45,65" />
        <polygon points="15,50 25,45 30,35 35,45 45,50 35,55 30,65 25,55" />
        <polygon points="55,50 65,45 70,35 75,45 85,50 75,55 70,65 65,55" />
      </g>
      
      <!-- Small decorative elements -->
      <g fill="#f59e0b" opacity="0.1">
        <circle cx="25" cy="25" r="2" />
        <circle cx="75" cy="25" r="2" />
        <circle cx="25" cy="75" r="2" />
        <circle cx="75" cy="75" r="2" />
        <circle cx="50" cy="50" r="3" />
      </g>
    </pattern>
  </defs>
  
  <rect x="0" y="0" width="100" height="100" fill="url(#islamic-pattern)" />
</svg>

